<mxfile host="app.diagrams.net" modified="2021-07-02T11:40:07.055Z" agent="5.0 (Windows NT 10.0; Win64; x64) AppleWebKit/537.36 (KHTML, like Gecko) Chrome/91.0.4472.114 Safari/537.36" etag="zAnZ-boNSScocjYIT_u7" version="14.8.1" type="github">
  <diagram id="gepJDRGZ-4eRxDchA_Et" name="Page-1">
    <mxGraphModel dx="2322" dy="2394" grid="1" gridSize="10" guides="1" tooltips="1" connect="1" arrows="1" fold="1" page="1" pageScale="1" pageWidth="900" pageHeight="1600" math="0" shadow="0">
      <root>
        <mxCell id="0" />
        <mxCell id="1" parent="0" />
        <mxCell id="60nfD4HBPIhA9CsIDbn1-3" value="&lt;b&gt;Google Cloud Platform &lt;br&gt;&amp;nbsp; &amp;nbsp; &amp;nbsp; &amp;nbsp; &amp;nbsp; &amp;nbsp; &amp;nbsp; &amp;amp;&lt;br&gt;Netcracker DevOps School Alex Team&lt;br&gt;&lt;/b&gt;" style="fillColor=#F6F6F6;strokeColor=none;shadow=0;gradientColor=none;fontSize=14;align=left;spacing=10;fontColor=#717171;9E9E9E;verticalAlign=top;spacingTop=-4;fontStyle=0;spacingLeft=40;html=1;" parent="1" vertex="1">
          <mxGeometry x="-710" y="-180" width="1570" height="780" as="geometry" />
        </mxCell>
        <mxCell id="60nfD4HBPIhA9CsIDbn1-4" value="" style="shape=mxgraph.gcp2.google_cloud_platform;fillColor=#F6F6F6;strokeColor=none;shadow=0;gradientColor=none;" parent="60nfD4HBPIhA9CsIDbn1-3" vertex="1">
          <mxGeometry width="23" height="20" relative="1" as="geometry">
            <mxPoint x="20" y="10" as="offset" />
          </mxGeometry>
        </mxCell>
        <mxCell id="60nfD4HBPIhA9CsIDbn1-27" value="" style="edgeStyle=orthogonalEdgeStyle;rounded=0;orthogonalLoop=1;jettySize=auto;html=1;strokeWidth=8;fillColor=#d5e8d4;strokeColor=#82b366;gradientColor=#97d077;" parent="60nfD4HBPIhA9CsIDbn1-3" source="60nfD4HBPIhA9CsIDbn1-1" target="60nfD4HBPIhA9CsIDbn1-17" edge="1">
          <mxGeometry relative="1" as="geometry" />
        </mxCell>
        <mxCell id="60nfD4HBPIhA9CsIDbn1-1" value="&lt;font style=&quot;font-size: 24px&quot;&gt;&lt;b&gt;Jenkins&lt;/b&gt;&lt;/font&gt;" style="whiteSpace=wrap;html=1;" parent="60nfD4HBPIhA9CsIDbn1-3" vertex="1">
          <mxGeometry x="380.0030136986301" y="419.89518987341773" width="204.31506849315068" height="78.98734177215191" as="geometry" />
        </mxCell>
        <mxCell id="60nfD4HBPIhA9CsIDbn1-5" value="" style="shape=image;html=1;verticalAlign=top;verticalLabelPosition=bottom;labelBackgroundColor=#ffffff;imageAspect=0;aspect=fixed;image=https://cdn4.iconfinder.com/data/icons/logos-brands-5/24/jenkins-128.png" parent="60nfD4HBPIhA9CsIDbn1-3" vertex="1">
          <mxGeometry x="443.00013698630136" y="329.45443037974684" width="56.711948132139554" height="56.711948132139554" as="geometry" />
        </mxCell>
        <mxCell id="60nfD4HBPIhA9CsIDbn1-7" value="" style="shape=image;html=1;verticalAlign=top;verticalLabelPosition=bottom;labelBackgroundColor=#ffffff;imageAspect=0;aspect=fixed;image=https://cdn4.iconfinder.com/data/icons/socialcones/508/Github-128.png" parent="60nfD4HBPIhA9CsIDbn1-3" vertex="1">
          <mxGeometry x="140.85876712328766" y="319.9975949367089" width="75.61593084285273" height="75.61593084285273" as="geometry" />
        </mxCell>
        <mxCell id="60nfD4HBPIhA9CsIDbn1-11" value="&lt;font style=&quot;font-size: 24px&quot;&gt;&lt;b&gt;GitHub&lt;/b&gt;&lt;/font&gt;" style="rounded=1;whiteSpace=wrap;html=1;" parent="60nfD4HBPIhA9CsIDbn1-3" vertex="1">
          <mxGeometry x="89.99671232876712" y="423.7063291139241" width="177.3454794520548" height="75.17620253164557" as="geometry" />
        </mxCell>
        <mxCell id="60nfD4HBPIhA9CsIDbn1-17" value="&lt;font style=&quot;font-size: 18px&quot;&gt;&lt;b&gt;Build / Compile&lt;/b&gt;&lt;/font&gt;" style="rounded=0;whiteSpace=wrap;html=1;" parent="60nfD4HBPIhA9CsIDbn1-3" vertex="1">
          <mxGeometry x="669.998904109589" y="429.7686075949367" width="150.54794520547946" height="59.24050632911393" as="geometry" />
        </mxCell>
        <mxCell id="60nfD4HBPIhA9CsIDbn1-19" value="" style="shape=image;html=1;verticalAlign=top;verticalLabelPosition=bottom;labelBackgroundColor=#ffffff;imageAspect=0;aspect=fixed;image=https://cdn4.iconfinder.com/data/icons/logos-brands-5/24/jenkins-128.png" parent="60nfD4HBPIhA9CsIDbn1-3" vertex="1">
          <mxGeometry x="698.972602739726" y="329.45443037974684" width="56.711948132139554" height="56.711948132139554" as="geometry" />
        </mxCell>
        <mxCell id="60nfD4HBPIhA9CsIDbn1-51" value="" style="edgeStyle=orthogonalEdgeStyle;rounded=0;orthogonalLoop=1;jettySize=auto;html=1;shadow=0;fontSize=10;strokeWidth=8;strokeColor=#82b366;gradientColor=#97d077;fillColor=#d5e8d4;" parent="60nfD4HBPIhA9CsIDbn1-3" source="60nfD4HBPIhA9CsIDbn1-29" target="60nfD4HBPIhA9CsIDbn1-50" edge="1">
          <mxGeometry relative="1" as="geometry" />
        </mxCell>
        <mxCell id="60nfD4HBPIhA9CsIDbn1-29" value="&lt;b&gt;&amp;nbsp; &amp;nbsp; &amp;nbsp; &amp;nbsp; &amp;nbsp; &amp;nbsp; &amp;nbsp;&lt;font color=&quot;#000000&quot; style=&quot;font-size: 14px&quot;&gt;Continuous Delivery&lt;br&gt;&amp;nbsp;to GCR&lt;/font&gt;&lt;/b&gt;" style="strokeColor=#dddddd;fillColor=#ffffff;shadow=1;strokeWidth=1;rounded=1;absoluteArcSize=1;arcSize=2;fontSize=10;fontColor=#9E9E9E;align=center;html=1;" parent="60nfD4HBPIhA9CsIDbn1-3" vertex="1">
          <mxGeometry x="940" y="419.9" width="200" height="75.33" as="geometry" />
        </mxCell>
        <mxCell id="60nfD4HBPIhA9CsIDbn1-34" value="" style="edgeStyle=orthogonalEdgeStyle;fontSize=12;html=1;endArrow=blockThin;endFill=1;rounded=0;strokeWidth=11;endSize=4;startSize=4;dashed=0;strokeColor=#4284F3;" parent="60nfD4HBPIhA9CsIDbn1-3" edge="1">
          <mxGeometry width="100" relative="1" as="geometry">
            <mxPoint x="829.9999999999999" y="458.89" as="sourcePoint" />
            <mxPoint x="930" y="458.89" as="targetPoint" />
          </mxGeometry>
        </mxCell>
        <mxCell id="60nfD4HBPIhA9CsIDbn1-44" value="" style="html=1;shadow=0;dashed=0;align=center;verticalAlign=middle;shape=mxgraph.arrows2.arrow;dy=0.6;dx=40;notch=0;fontSize=10;strokeWidth=2;perimeterSpacing=1;rotation=-30;fillColor=#e51400;strokeColor=#B20000;fontColor=#ffffff;" parent="60nfD4HBPIhA9CsIDbn1-3" vertex="1">
          <mxGeometry x="1310" y="399.45" width="90" height="31.4" as="geometry" />
        </mxCell>
        <mxCell id="60nfD4HBPIhA9CsIDbn1-46" value="&lt;b&gt;&lt;font style=&quot;font-size: 14px&quot;&gt;Continuous Deploy&amp;nbsp;&lt;br&gt;docker-compose&lt;/font&gt;&amp;nbsp;&lt;/b&gt;" style="rounded=1;whiteSpace=wrap;html=1;fontSize=10;strokeWidth=2;" parent="60nfD4HBPIhA9CsIDbn1-3" vertex="1">
          <mxGeometry x="1395" y="339.45" width="155" height="70.55" as="geometry" />
        </mxCell>
        <mxCell id="60nfD4HBPIhA9CsIDbn1-47" value="&lt;font style=&quot;font-size: 14px&quot;&gt;&lt;b&gt;Continuous Deploy&amp;nbsp;&lt;br&gt;Kubernetes&lt;/b&gt;&lt;/font&gt;" style="rounded=1;whiteSpace=wrap;html=1;fontSize=10;strokeWidth=2;" parent="60nfD4HBPIhA9CsIDbn1-3" vertex="1">
          <mxGeometry x="1400" y="478.6" width="150" height="71.4" as="geometry" />
        </mxCell>
        <mxCell id="60nfD4HBPIhA9CsIDbn1-48" value="" style="html=1;shadow=0;dashed=0;align=center;verticalAlign=middle;shape=mxgraph.arrows2.arrow;dy=0.57;dx=42.16;notch=0;fontSize=10;strokeWidth=2;perimeterSpacing=1;rotation=15;fillColor=#e51400;strokeColor=#B20000;fontColor=#ffffff;" parent="60nfD4HBPIhA9CsIDbn1-3" vertex="1">
          <mxGeometry x="1310" y="478.58" width="89.83" height="31.4" as="geometry" />
        </mxCell>
        <mxCell id="60nfD4HBPIhA9CsIDbn1-45" value="" style="aspect=fixed;html=1;points=[];align=center;image;fontSize=12;image=img/lib/mscae/Docker.svg;strokeWidth=2;" parent="60nfD4HBPIhA9CsIDbn1-3" vertex="1">
          <mxGeometry x="1434.51" y="260" width="60.98" height="50" as="geometry" />
        </mxCell>
        <mxCell id="60nfD4HBPIhA9CsIDbn1-49" value="Kubernetes&#xa;Engine" style="html=1;fillColor=#5184F3;strokeColor=none;verticalAlign=top;labelPosition=center;verticalLabelPosition=bottom;align=center;spacingTop=-6;fontSize=11;fontStyle=1;fontColor=#999999;shape=mxgraph.gcp2.hexIcon;prIcon=container_engine" parent="60nfD4HBPIhA9CsIDbn1-3" vertex="1">
          <mxGeometry x="1420" y="550" width="90" height="69.25" as="geometry" />
        </mxCell>
        <mxCell id="60nfD4HBPIhA9CsIDbn1-50" value="&lt;font style=&quot;font-size: 18px&quot;&gt;&lt;b&gt;Jenkins TEST&lt;/b&gt;&lt;/font&gt;" style="rhombus;whiteSpace=wrap;html=1;fontSize=10;strokeWidth=2;" parent="60nfD4HBPIhA9CsIDbn1-3" vertex="1">
          <mxGeometry x="1220" y="419.9" width="120" height="76.2" as="geometry" />
        </mxCell>
        <mxCell id="60nfD4HBPIhA9CsIDbn1-53" value="&lt;font style=&quot;font-size: 24px&quot;&gt;&lt;b&gt;&lt;i&gt;Continuous Integrations&lt;/i&gt;&lt;/b&gt;&lt;/font&gt;" style="html=1;shadow=0;dashed=0;align=center;verticalAlign=middle;shape=mxgraph.arrows2.arrow;dy=0.6;dx=50;notch=0;fontSize=10;strokeWidth=2;gradientColor=#97d077;fillColor=#d5e8d4;strokeColor=#82b366;" parent="60nfD4HBPIhA9CsIDbn1-3" vertex="1">
          <mxGeometry x="72.36" y="570" width="729.26" height="70" as="geometry" />
        </mxCell>
        <mxCell id="60nfD4HBPIhA9CsIDbn1-54" value="&lt;font style=&quot;font-size: 24px&quot;&gt;&lt;b&gt;&lt;i&gt;Continuous Delivery&lt;/i&gt;&lt;/b&gt;&lt;/font&gt;" style="html=1;shadow=0;dashed=0;align=center;verticalAlign=middle;shape=mxgraph.arrows2.arrow;dy=0.6;dx=50;notch=0;fontSize=10;strokeWidth=2;gradientColor=#ffa500;fillColor=#ffcd28;strokeColor=#d79b00;" parent="60nfD4HBPIhA9CsIDbn1-3" vertex="1">
          <mxGeometry x="820" y="570" width="320" height="70" as="geometry" />
        </mxCell>
        <mxCell id="60nfD4HBPIhA9CsIDbn1-57" value="&lt;font style=&quot;font-size: 24px&quot;&gt;&lt;b&gt;&lt;i&gt;Continuous Deploy&lt;/i&gt;&lt;/b&gt;&lt;/font&gt;" style="html=1;shadow=0;dashed=0;align=center;verticalAlign=middle;shape=mxgraph.arrows2.arrow;dy=0.6;dx=50;notch=0;fontSize=10;strokeWidth=2;fillColor=#fa6800;strokeColor=#C73500;fontColor=#000000;" parent="60nfD4HBPIhA9CsIDbn1-3" vertex="1">
          <mxGeometry x="1150" y="690" width="405" height="60" as="geometry" />
        </mxCell>
        <mxCell id="60nfD4HBPIhA9CsIDbn1-22" value="" style="shape=flexArrow;endArrow=classic;html=1;width=12;endSize=10.09;strokeColor=#3700CC;fillColor=#000000;" parent="60nfD4HBPIhA9CsIDbn1-3" edge="1">
          <mxGeometry width="50" height="50" relative="1" as="geometry">
            <mxPoint x="290.00150684931515" y="460.7951898734178" as="sourcePoint" />
            <mxPoint x="365.275479452055" y="460.7951898734178" as="targetPoint" />
            <Array as="points">
              <mxPoint x="290.00150684931515" y="460.7951898734177" />
            </Array>
          </mxGeometry>
        </mxCell>
        <mxCell id="60nfD4HBPIhA9CsIDbn1-36" value="" style="shape=image;verticalLabelPosition=bottom;labelBackgroundColor=#ffffff;verticalAlign=top;aspect=fixed;imageAspect=0;image=https://carlossanchez.files.wordpress.com/2019/06/21046548.png;" parent="60nfD4HBPIhA9CsIDbn1-3" vertex="1">
          <mxGeometry x="1005" y="329.44999999999993" width="70" height="70" as="geometry" />
        </mxCell>
        <mxCell id="YaV6r9xbSxadoPweMzgb-28" value="" style="edgeStyle=orthogonalEdgeStyle;rounded=0;orthogonalLoop=1;jettySize=auto;html=1;fillColor=#1ba1e2;strokeWidth=4;strokeColor=#006EAF;" edge="1" parent="60nfD4HBPIhA9CsIDbn1-3" source="YaV6r9xbSxadoPweMzgb-26" target="60nfD4HBPIhA9CsIDbn1-36">
          <mxGeometry relative="1" as="geometry" />
        </mxCell>
        <mxCell id="YaV6r9xbSxadoPweMzgb-26" value="" style="html=1;aspect=fixed;strokeColor=none;shadow=0;align=center;verticalAlign=top;fillColor=#3B8DF1;shape=mxgraph.gcp2.cloud_computer" vertex="1" parent="60nfD4HBPIhA9CsIDbn1-3">
          <mxGeometry x="954.78" y="100" width="170.45" height="150" as="geometry" />
        </mxCell>
        <mxCell id="60nfD4HBPIhA9CsIDbn1-31" value="" style="shape=image;verticalLabelPosition=bottom;labelBackgroundColor=#ffffff;verticalAlign=top;aspect=fixed;imageAspect=0;image=https://carlossanchez.files.wordpress.com/2019/06/21046548.png;" parent="60nfD4HBPIhA9CsIDbn1-3" vertex="1">
          <mxGeometry x="940" y="433.58" width="45" height="45" as="geometry" />
        </mxCell>
        <mxCell id="YaV6r9xbSxadoPweMzgb-27" value="&lt;span style=&quot;font-size: 18px&quot;&gt;&lt;b&gt;BUILD &amp;amp; DEPLOY SERVER&lt;/b&gt;&lt;/span&gt;" style="rounded=0;whiteSpace=wrap;html=1;strokeColor=#3333FF;" vertex="1" parent="60nfD4HBPIhA9CsIDbn1-3">
          <mxGeometry x="954.78" y="60" width="170" height="40" as="geometry" />
        </mxCell>
        <mxCell id="YaV6r9xbSxadoPweMzgb-30" value="" style="edgeStyle=orthogonalEdgeStyle;rounded=0;orthogonalLoop=1;jettySize=auto;html=1;strokeWidth=4;fillColor=#1ba1e2;strokeColor=#006EAF;" edge="1" parent="60nfD4HBPIhA9CsIDbn1-3" source="YaV6r9xbSxadoPweMzgb-26">
          <mxGeometry relative="1" as="geometry">
            <mxPoint x="1280" y="350" as="targetPoint" />
            <Array as="points">
              <mxPoint x="1280" y="175" />
            </Array>
          </mxGeometry>
        </mxCell>
        <mxCell id="YaV6r9xbSxadoPweMzgb-32" value="" style="edgeStyle=orthogonalEdgeStyle;rounded=0;orthogonalLoop=1;jettySize=auto;html=1;strokeWidth=4;fillColor=#1ba1e2;strokeColor=#006EAF;" edge="1" parent="60nfD4HBPIhA9CsIDbn1-3" source="YaV6r9xbSxadoPweMzgb-26">
          <mxGeometry relative="1" as="geometry">
            <mxPoint x="730" y="310" as="targetPoint" />
          </mxGeometry>
        </mxCell>
        <mxCell id="YaV6r9xbSxadoPweMzgb-34" value="" style="shape=image;html=1;verticalAlign=top;verticalLabelPosition=bottom;labelBackgroundColor=#ffffff;imageAspect=0;aspect=fixed;image=https://cdn4.iconfinder.com/data/icons/logos-brands-5/24/jenkins-128.png" vertex="1" parent="60nfD4HBPIhA9CsIDbn1-3">
          <mxGeometry x="1250.002602739726" y="353.2844303797468" width="56.711948132139554" height="56.711948132139554" as="geometry" />
        </mxCell>
      </root>
    </mxGraphModel>
  </diagram>
</mxfile>
